<?xml version="1.0" encoding="utf-8"?>
<!-- Generator: Adobe Illustrator 21.1.0, SVG Export Plug-In . SVG Version: 6.00 Build 0)  -->
<svg version="1.1" id="图层_1" xmlns="http://www.w3.org/2000/svg" xmlns:xlink="http://www.w3.org/1999/xlink" x="0px" y="0px"
	 viewBox="0 0 54 54" style="enable-background:new 0 0 54 54;" xml:space="preserve">
<style type="text/css">
	.st0{fill:#FFFFFF;}
	.st1{clip-path:url(#SVGID_2_);fill:#333333;}
	.st2{fill:#333333;}
</style>
<g>
	
		<image style="overflow:visible;opacity:0.2;enable-background:new    ;" width="69" height="69" xlink:href="B061794E.png"  transform="matrix(1 0 0 1 -7.7135 -7.38)">
	</image>
	<g>
		<circle class="st0" cx="27" cy="27" r="25"/>
	</g>
</g>
<g>
	<g>
		<g>
			<g>
				<defs>
					<rect id="SVGID_1_" x="17.3" y="12.8" width="19.4" height="19.4"/>
				</defs>
				<clipPath id="SVGID_2_">
					<use xlink:href="#SVGID_1_"  style="overflow:visible;"/>
				</clipPath>
				<path class="st1" d="M17.3,13.6c0-0.5,0.4-0.8,0.8-0.8h17.7c0.5,0,0.8,0.4,0.8,0.8c0,0.2-0.1,0.4-0.2,0.6
					c-0.2,0.2-0.3,0.2-0.6,0.2H18.2c-0.2,0-0.4-0.1-0.6-0.2C17.4,14,17.3,13.7,17.3,13.6L17.3,13.6z M27,15.9c0.5,0,0.8,0.4,0.8,0.8
					v14.5c0,0.5-0.4,0.8-0.8,0.8c-0.5,0-0.8-0.3-0.8-0.8V16.8C26.2,16.3,26.5,15.9,27,15.9L27,15.9z"/>
			</g>
		</g>
		<path class="st2" d="M26.4,16.2c0.3-0.3,0.8-0.3,1.2,0l6.3,6.3c0.2,0.2,0.2,0.3,0.2,0.6s-0.1,0.4-0.2,0.6
			c-0.2,0.2-0.3,0.2-0.6,0.2c-0.2,0-0.4-0.1-0.6-0.2l-6.3-6.3c-0.2-0.2-0.2-0.3-0.2-0.6C26.2,16.6,26.3,16.3,26.4,16.2L26.4,16.2z"
			/>
		<path class="st2" d="M27.6,16.2c0.3,0.3,0.3,0.8,0,1.2l-6.3,6.4c-0.2,0.2-0.3,0.2-0.6,0.2c-0.2,0-0.4-0.1-0.6-0.2
			c-0.2-0.2-0.2-0.3-0.2-0.6c0-0.2,0.1-0.4,0.2-0.6l6.3-6.3C26.8,15.8,27.3,15.8,27.6,16.2L27.6,16.2z"/>
	</g>
	<g>
		<path d="M17.5,34.7H21v0.7h-1.3v6.4c0,0.8-0.4,1.1-1.2,1.1c-0.3,0-0.6,0-0.8,0c0-0.3-0.1-0.6-0.2-0.8c0.3,0.1,0.6,0.1,0.9,0.1
			c0.3,0,0.5-0.1,0.5-0.4v-6.3h-1.5V34.7z M23.5,37.5h0.7v1c0,0.8-0.1,1.5-0.3,2c1.1,0.7,2,1.4,2.9,2l-0.5,0.6
			c-0.8-0.7-1.7-1.4-2.7-2c-0.1,0.1-0.1,0.2-0.2,0.3c-0.5,0.7-1.4,1.3-2.7,1.7c-0.1-0.2-0.3-0.4-0.5-0.7c1.2-0.3,2-0.8,2.5-1.4
			c0.4-0.6,0.7-1.4,0.7-2.6V37.5z M21.3,36.4h1.8l0.3-1.3h-2.1v-0.7h5.6v0.7h-2.7l-0.3,1.3h2.6v4.5h-0.7v-3.9H22V41h-0.7V36.4z"/>
		<path d="M27.2,37.6h3c0.4-0.7,0.7-1.2,0.9-1.8l0.7,0.4c-0.3,0.5-0.6,1-0.9,1.4h1.7v0.6h-5.4V37.6z M27.4,35.1h2.4
			c-0.1-0.3-0.3-0.6-0.6-1l0.7-0.3c0.3,0.5,0.5,0.8,0.6,1.1l-0.5,0.2h2.4v0.6h-5V35.1z M27.9,39.3H32v3.9h-0.7v-0.7h-2.7v0.7h-0.7
			V39.3z M28.1,36.3l0.6-0.4c0.3,0.4,0.6,0.9,0.9,1.3l-0.6,0.4C28.7,37.2,28.4,36.8,28.1,36.3z M31.3,39.9h-2.7v1.9h2.7V39.9z
			 M36.6,40c0,1.1-0.4,1.7-1.3,1.8c-0.3,0-0.8,0-1.3,0c0-0.2-0.1-0.5-0.1-0.8c0.5,0.1,0.9,0.1,1.2,0.1c0.6,0,0.8-0.4,0.8-1.1
			c0-0.7-0.5-1.4-1.4-2.1c0.4-0.8,0.8-1.7,1.3-2.7h-1.9v8.1H33v-8.8h3.4v0.8c-0.2,0.6-0.6,1.5-1.1,2.5C36.1,38.4,36.6,39.1,36.6,40z
			"/>
	</g>
</g>
</svg>
