<?xml version="1.0" standalone="no"?><!DOCTYPE svg PUBLIC "-//W3C//DTD SVG 1.1//EN" "http://www.w3.org/Graphics/SVG/1.1/DTD/svg11.dtd"><svg t="1598254320053" class="icon" viewBox="0 0 1024 1024" version="1.1" xmlns="http://www.w3.org/2000/svg" p-id="9860" xmlns:xlink="http://www.w3.org/1999/xlink" width="80" height="80"><defs><style type="text/css"></style></defs><path d="M512 439.04m-432.64 0a432.64 432.64 0 1 0 865.28 0 432.64 432.64 0 1 0-865.28 0Z" fill="#666666" p-id="9861"></path><path d="M512 390.4c-167.552 0-303.36 111.872-303.36 249.856 0 28.032 5.632 54.912 15.872 80.128C299.136 783.872 400.384 823.04 512 823.04s212.864-39.168 287.488-102.656c10.368-25.088 15.872-52.096 15.872-80.128C815.36 502.272 679.552 390.4 512 390.4z" fill="#FFFFFF" p-id="9862"></path><path d="M512 240.64m-149.76 0a149.76 149.76 0 1 0 299.52 0 149.76 149.76 0 1 0-299.52 0Z" fill="#FFFFFF" p-id="9863"></path></svg>