<?xml version="1.0" standalone="no"?><!DOCTYPE svg PUBLIC "-//W3C//DTD SVG 1.1//EN" "http://www.w3.org/Graphics/SVG/1.1/DTD/svg11.dtd"><svg t="1598251733762" class="icon" viewBox="0 0 1024 1024" version="1.1" xmlns="http://www.w3.org/2000/svg" p-id="2037" width="80" height="80" xmlns:xlink="http://www.w3.org/1999/xlink"><defs><style type="text/css"></style></defs><path d="M896 128H128a32 32 0 0 0-32 32v576a32 32 0 0 0 32 32h288v-64H160V192h704v512H608c-8.832 0-16.832 3.584-22.656 9.376l-159.968 160 45.248 45.248L621.248 768H896a32 32 0 0 0 32-32V160a32 32 0 0 0-32-32" fill="#181818" p-id="2038"></path><path d="M560 448a48 48 0 1 0-95.968-0.032A48 48 0 0 0 560 448m-320 0a48 48 0 1 0 95.968 0.032A48 48 0 0 0 240 448m544 0a48 48 0 1 0-95.968-0.032A48 48 0 0 0 784 448" fill="#181818" p-id="2039"></path></svg>